<?xml version="1.0" encoding="UTF-8" standalone="no"?>
<!-- Created with Inkscape (http://www.inkscape.org/) -->

<svg
   xmlns:dc="http://purl.org/dc/elements/1.1/"
   xmlns:cc="http://creativecommons.org/ns#"
   xmlns:rdf="http://www.w3.org/1999/02/22-rdf-syntax-ns#"
   xmlns:svg="http://www.w3.org/2000/svg"
   xmlns="http://www.w3.org/2000/svg"
   xmlns:sodipodi="http://sodipodi.sourceforge.net/DTD/sodipodi-0.dtd"
   xmlns:inkscape="http://www.inkscape.org/namespaces/inkscape"
   version="1.1"
   id="svg2"
   width="728"
   height="730"
   viewBox="0 0 728 730"
   sodipodi:docname="beatmania_logo.svg"
   inkscape:version="0.92.4 (unknown)">
  <metadata
     id="metadata8">
    <rdf:RDF>
      <cc:Work
         rdf:about="">
        <dc:format>image/svg+xml</dc:format>
        <dc:type
           rdf:resource="http://purl.org/dc/dcmitype/StillImage" />
        <dc:title></dc:title>
      </cc:Work>
    </rdf:RDF>
  </metadata>
  <defs
     id="defs6" />
  <sodipodi:namedview
     pagecolor="#ffffff"
     bordercolor="#666666"
     borderopacity="1"
     objecttolerance="10"
     gridtolerance="10"
     guidetolerance="10"
     inkscape:pageopacity="0"
     inkscape:pageshadow="2"
     inkscape:window-width="1920"
     inkscape:window-height="1024"
     id="namedview4"
     showgrid="false"
     inkscape:zoom="0.45"
     inkscape:cx="-531.48729"
     inkscape:cy="63.594633"
     inkscape:window-x="0"
     inkscape:window-y="0"
     inkscape:window-maximized="1"
     inkscape:current-layer="svg2">
    <inkscape:grid
       type="xygrid"
       id="grid833" />
  </sodipodi:namedview>
  <rect
     style="fill:#000000;fill-opacity:1;stroke:none;stroke-width:1.5551306;stroke-linecap:round;stroke-linejoin:bevel;stroke-miterlimit:4;stroke-dasharray:none;stroke-opacity:1"
     id="rect827"
     width="750"
     height="750"
     x="-827.22498"
     y="18.607723"
     inkscape:export-xdpi="96"
     inkscape:export-ydpi="96" />
  <path
     style="fill:#ff0000;fill-opacity:1"
     d="m -493.70774,757.89564 c -1.1,-0.25653 -8.975,-1.82641 -17.5,-3.4886 -88.894,-17.33245 -161.3965,-56.24678 -212.1587,-113.87215 -47.2398,-53.62672 -78.5951,-126.66865 -91.3262,-212.74342 -2.082,-14.07618 -2.0611,-53.27331 0.036,-68.31175 6.7169,-48.15828 22.2771,-99.68854 41.9677,-138.9831 9.276,-18.51125 27.0104,-47.63418 32.1156,-52.73946 0.8266,-0.8266 2.2426,-2.67726 3.1467,-4.11259 7.361,-11.6866 35.3764,-40.45053 53.1697,-54.59019 48.1487,-38.262023 104.3763,-62.797783 178.0488,-77.694213 10.9761,-2.21936 13.4587,-2.32528 54.5,-2.32528 h 43 l 15.5,3.31555 c 60.4539,12.93147 106.87654,31.32616 148.00001,58.64407 30.61882,20.339793 60.32835,48.034983 79.26905,73.894523 36.57056,49.92941 58.899,102.97602 72.24937,171.64585 4.76265,24.49747 5.48158,31.94932 5.48158,56.81729 0,29.24404 -2.08814,44.85552 -11.11222,83.07769 -12.43393,52.6649 -36.21686,105.37741 -64.34083,142.60503 -53.31768,70.5765 -124.425,112.84549 -227.54696,135.26287 l -16.5,3.58689 -42,0.23871 c -23.1,0.1313 -42.9,0.0288 -44,-0.22772 z m -7.3874,-73.44145 c 0.337,-9.58061 0.9639,-19.37516 1.3932,-21.76566 0.7654,-4.26142 0.8414,-4.33133 3.8874,-3.57762 1.7088,0.42281 18.8568,0.86202 38.1068,0.97603 19.25,0.11401 35.5625,0.26144 36.25,0.32762 0.9567,0.0921 1.25,5.06913 1.25,21.2101 v 21.08977 l 8.75,-0.65304 c 29.8384,-2.22694 49.8365,-7.48564 64.9355,-17.07544 3.198,-2.03116 5.978,-3.83952 6.1778,-4.01859 0.1998,-0.17907 -1.5004,-3.16213 -3.7781,-6.62902 -3.7879,-5.7655 -16.0852,-28.87495 -16.0852,-30.22778 0,-0.31662 1.0546,-0.57567 2.3435,-0.57567 5.4939,0 23.131,-7.78429 33.0662,-14.59407 2.7997,-1.91896 10.2247,-7.07033 16.50006,-11.44748 6.27533,-4.37715 12.20179,-7.95845 13.16992,-7.95845 1.14491,0 4.84689,4.60976 10.5903,13.18717 9.13521,13.64285 14.37005,19.81283 16.80995,19.81283 3.55148,0 23.53353,-14.90388 34.11647,-25.44622 9.62232,-9.5854 21.4192,-23.61905 21.39609,-25.45291 -0.004,-0.33048 -5.25349,-4.20087 -11.66517,-8.60087 -12.82294,-8.79972 -22.32726,-16.9304 -22.32726,-19.10034 0,-0.76981 0.41646,-1.39966 0.92546,-1.39966 1.45644,0 13.19961,-14.14585 19.29305,-23.24045 3.04367,-4.54275 9.29118,-14.44705 13.88336,-22.00955 4.59218,-7.5625 8.8583,-13.75 9.48027,-13.75 0.62197,0 6.70793,2.64609 13.52436,5.88021 14.09379,6.68693 22.6918,9.73787 23.89786,8.47999 1.56933,-1.63677 8.94251,-20.47651 11.95633,-30.55047 3.57,-11.93305 6.64286,-27.27288 7.60931,-37.98588 l 0.69248,-7.67616 -21.04993,-0.32384 c -11.57747,-0.17812 -21.33816,-0.61298 -21.69043,-0.96636 -0.35226,-0.35339 0.036,-3.05339 0.86282,-6 2.31829,-8.26192 3.60297,-21.84362 3.67549,-38.85749 0.0716,-16.80244 1.20651,-36.60028 2.15228,-37.54606 0.32428,-0.32427 8.62157,0.0536 18.43844,0.83978 9.81687,0.78615 18.24985,1.06817 18.73997,0.6267 1.11937,-1.00826 -0.93024,-25.56136 -2.9451,-35.28052 -0.81409,-3.92695 -2.39401,-10.06491 -3.51095,-13.63991 -2.39388,-7.66215 -10.92294,-26 -12.09278,-26 -0.44673,0 -3.01575,1.35583 -5.70893,3.01296 -5.93462,3.65161 -23.60538,11.99236 -25.36702,11.97345 -0.69649,-0.007 -3.03326,-4.05198 -5.19283,-8.98779 -5.37589,-12.28689 -15.61854,-29.91227 -26.07054,-44.86174 -7.46948,-10.68359 -8.50848,-12.64917 -7.17065,-13.5654 0.86049,-0.58931 6.20024,-3.90665 11.8661,-7.37186 5.66587,-3.46521 12.48581,-8.19806 15.15542,-10.51745 L -200,210 l -7.25801,-9.48256 c -10.34129,-13.51085 -27.66157,-30.39198 -38.7652,-37.78233 -5.12355,-3.41013 -9.84855,-6.18598 -10.5,-6.16856 -0.65146,0.0174 -3.20947,3.0376 -5.68447,6.71151 -2.475,3.6739 -6.89423,9.74236 -9.82052,13.48545 l -5.32052,6.80563 -5.67948,-5.07762 c -7.36607,-6.58549 -21.51094,-16.16052 -42.67944,-28.89084 -9.35,-5.6229 -17.6117,-10.81569 -18.3592,-11.53952 -1.1395,-1.10335 -0.6984,-2.21056 2.7292,-6.85028 4.391,-5.944 9.5947,-15.60434 10.6059,-19.68952 0.5584,-2.25593 -0.023,-2.88664 -5.6769,-6.15426 -18.5322,-10.711263 -35.1362,-17.081413 -55.7435,-21.386113 -6.2944,-1.31485 -11.5342,-2.29062 -11.6439,-2.16837 -0.1097,0.12225 0.1343,6.52227 0.5424,14.22227 0.4081,7.700003 0.5221,17.075723 0.2535,20.834943 l -0.4885,6.83494 -3.6095,-0.69125 c -10.159,-1.94551 -16.1972,-2.49051 -33.6096,-3.03355 -10.45,-0.3259 -24.0008,-0.21638 -30.1128,0.24338 l -11.1128,0.83593 -0.665,-14.0122 c -0.3657,-7.706703 -0.9438,-16.213293 -1.2847,-18.903533 l -0.6198,-4.89134 -11.1025,0.58719 c -14.861,0.78596 -27.9274,3.14059 -40.4926,7.29694 -10.1625,3.36156 -21.1738,8.56851 -26.0519,12.319233 l -2.4421,1.87772 3.0347,3.45634 c 2.9256,3.33208 17.3495,25.89225 17.3495,27.13606 0,0.33506 -0.6127,0.6092 -1.3615,0.6092 -3.8092,0 -31.1062,15.2687 -49.1385,27.48582 -17.3192,11.73402 -20.134,13.32677 -21,11.88262 -0.55,-0.91723 -5.1003,-7.82633 -10.1118,-15.35357 -5.0115,-7.52724 -9.3181,-14.30474 -9.5703,-15.06114 -0.5817,-1.74528 -15.8875,8.40232 -27.5351,18.2556 -14.8001,12.52015 -31.4996,31.54976 -28.5505,32.53417 0.9629,0.32141 24.0074,17.2136 31.1874,22.86114 1.1899,0.93591 0.9825,1.58434 -1.2809,4.00601 -4.4136,4.72211 -11.7977,15.9625 -20.6204,31.38934 -9.6579,16.88738 -17.7756,29 -19.4352,29 -0.6419,0 -5.1982,-2.31984 -10.1251,-5.1552 -8.2235,-4.73245 -19.2529,-9.8448 -21.2392,-9.8448 -1.1899,0 -9.5784,14.24852 -13.5502,23.01597 -5.9917,13.22605 -10.9098,31.96869 -12.2925,46.84593 l -0.6634,7.1381 h 18.5186 c 10.1853,0 19.9666,0.28959 21.7363,0.64353 3.0455,0.6091 3.189,0.83649 2.6831,4.25 -2.1576,14.55695 -2.957,37.04404 -1.9615,55.1791 0.5865,10.68506 0.9152,19.59606 0.7304,19.80222 -0.1848,0.20616 -7.6673,-0.18261 -16.6278,-0.86393 -10.4399,-0.79381 -18.0879,-0.91619 -21.2919,-0.34072 l -5,0.89805 0.3102,5.46588 c 0.8665,15.26682 6.5505,42.53357 12.3961,59.46588 5.1919,15.03866 5.5543,15.70817 8.0804,14.92743 3.6868,-1.13946 9.7477,-4.41826 19.2133,-10.39392 7.9428,-5.01428 17.3795,-9.65376 17.951,-8.82536 0.1107,0.16052 1.2392,3.21685 2.5078,6.79185 5.0325,14.18234 13.2883,29.11572 27.6925,50.09099 4.163,6.06211 7.407,11.16928 7.2089,11.34927 -0.1981,0.17999 -4.037,2.16666 -8.531,4.41483 -9.803,4.90415 -23.7554,13.155 -27.6331,16.3411 l -2.8039,2.30381 11.4461,14 c 12.8133,15.67239 31.5538,35.08872 40.0824,41.52784 3.0978,2.33886 5.7329,4.07691 5.8558,3.86232 0.1229,-0.21459 1.0878,-1.96516 2.1441,-3.89016 3.8165,-6.95476 17.5425,-28.56864 20.0043,-31.5 l 2.5194,-3 4.3061,4.54125 c 5.2162,5.50099 14.3423,12.06166 25.7496,18.51119 18.2879,10.33967 31.9003,18.47722 32.4814,19.41748 0.3349,0.54182 -4.1654,9.14124 -10.0007,19.10981 -5.8353,9.96857 -10.4681,18.25123 -10.2951,18.40591 1.4601,1.30585 21.3402,10.01433 29.3144,12.84123 14.8716,5.27203 44.2745,12.16717 48,11.25625 0.5892,-0.14407 1.2517,-7.4005 1.6126,-17.66382 z m 116.948,-64.94069 c -12.068,-1.68457 -25.1619,-6.59855 -36.2736,-13.61308 l -3.787,-2.39062 v -26.48745 c 0,-20.8351 0.2728,-26.48746 1.2782,-26.48746 0.703,0 4.6405,1.61713 8.75,3.59362 22.1313,10.6442 40.2226,6.25144 48.4552,-11.76537 5.0089,-10.96196 5.9454,-18.06058 5.9799,-45.32825 0.017,-13.75 -0.5113,-36.25 -1.1748,-50 -0.7168,-14.85208 -0.8791,-28.65325 -0.3999,-34 0.4436,-4.95 0.4281,-9.42456 -0.034,-9.94346 -0.4626,-0.51891 -6.019,-0.85322 -12.3476,-0.74293 l -11.5066,0.20054 v -25.4829 -25.4829 l -16.5546,-0.27418 -16.5547,-0.27418 0.037,-33 0.037,-33 53.0178,-0.25876 53.0179,-0.25877 v 55.39214 55.39214 l 2.25,0.60297 c 1.2375,0.33164 7.26269,0.60913 13.38933,0.61664 l 11.13942,0.0136 -0.0407,26.25 c -0.0224,14.4375 0.54071,38.55834 1.25131,53.60186 1.54549,32.71865 0.93346,64.20285 -1.47056,75.64814 -3.44358,16.39455 -9.92162,28.75685 -21.32186,40.68934 -12.08464,12.64889 -25.63274,20.47343 -42.99424,24.83084 -9.143,2.29471 -25.1538,3.21311 -34.1421,1.95843 z m -181.2297,-108.00176 c -29.6346,-5.00083 -55.3164,-24.76878 -69.7451,-53.6847 -7.4236,-14.87709 -12.6221,-34.53234 -13.2356,-50.04215 l -0.2076,-5.25 h -13.6925 -13.6924 l -0.643,-4.84699 c -0.7665,-5.7782 0.9312,-26.8633 2.9267,-36.3498 3.0538,-14.51727 8.7165,-28.00975 16.4513,-39.19859 13.9621,-20.1969 32.4603,-32.54732 56.5073,-37.72754 9.8687,-2.12591 32.2194,-1.59164 44,1.05178 13.6684,3.06702 12.8101,3.15686 13.6511,-1.42887 1.3287,-7.24463 1.0016,-43.28314 -0.4011,-44.19098 -0.6875,-0.44496 -5.6375,-0.70183 -11,-0.57081 l -9.75,0.23821 v -33.48821 -33.48821 h 51.5 51.5 v 112 112.00001 h 15.5 15.5 v 55.93873 55.93872 l -4.4196,0.66276 c -10.1584,1.52335 -19.1807,-2.00859 -27.2401,-10.66361 -11.7085,-12.57369 -16.0569,-16.8766 -17.0552,-16.8766 -0.5606,0 -2.2816,1.90744 -3.8244,4.23876 -8.1666,12.34056 -24.0171,21.32367 -44.4716,25.20382 -8.6786,1.6463 -29.8147,1.94223 -38.1582,0.53427 z m 41.6691,-74.36416 c 10.1716,-4.8168 16.1039,-14.66384 17.171,-28.50235 l 0.6254,-8.11034 h -15.1482 -15.1482 v -7.45078 c 0,-18.58489 -6.3702,-30.66923 -19.5721,-37.12833 -4.8701,-2.3827 -6.3145,-2.62499 -13.1982,-2.21388 -11.0248,0.65844 -18.5082,5.23456 -24.5572,15.01678 -2.605,4.21281 -4.6725,13.49879 -4.6725,20.98631 v 6.7899 h 14 14 v 3.7899 c 0,10.48189 5.4814,22.70755 13.4436,29.98459 9.9368,9.08167 22.7303,11.72819 33.0564,6.8382 z m 158.3216,-188.9397 c -10.5366,-4.43765 -17.5172,-11.86315 -21.6854,-23.06772 -8.2197,-22.09523 2.6147,-44.6461 24.3638,-50.71099 2.75,-0.76686 8.6,-1.37449 13.0001,-1.35029 6.5937,0.0363 9.0958,0.54243 14.2343,2.87952 28.67501,13.04214 29.57264,58.37384 1.4136,71.39157 -4.6527,2.15095 -7.41,2.66726 -15.6479,2.93023 -8.7338,0.27879 -10.7191,0.0164 -15.6785,-2.07232 z"
     id="path817"
     inkscape:connector-curvature="0" />
  <path
     style="fill:#000000;fill-opacity:0.29411766;stroke:none;stroke-width:1px;stroke-linecap:butt;stroke-linejoin:miter;stroke-opacity:1"
     d="m -932.29166,407.08334 283.72652,-4.54845 78.3574,-6 64.2964,4 75.7036,-4 68.95873,4.97248 49.04207,-6.20574 L -18.75,406.04167 -37.500003,908.125 c 0,0 -889.583327,62.5 -883.333327,44.79167 6.25,-17.70834 -11.45833,-545.83333 -11.45833,-545.83333 z"
     id="path835"
     inkscape:connector-curvature="0"
     sodipodi:nodetypes="cccccccccsc" />
</svg>
